<?xml version="1.0" encoding="utf-8"?>
<!-- Generator: Adobe Illustrator 16.0.0, SVG Export Plug-In . SVG Version: 6.00 Build 0)  -->
<!DOCTYPE svg PUBLIC "-//W3C//DTD SVG 1.1//EN" "http://www.w3.org/Graphics/SVG/1.1/DTD/svg11.dtd">
<svg version="1.1" id="Layer_1" xmlns="http://www.w3.org/2000/svg" xmlns:xlink="http://www.w3.org/1999/xlink" x="0px" y="0px"
	 width="237.695px" height="37px" viewBox="0 0 237.695 37" enable-background="new 0 0 237.695 37" xml:space="preserve">
<g>
	<g>
		<rect x="1.5" y="1.5" fill="none" stroke="#333333" stroke-width="3" stroke-miterlimit="10" width="33" height="34"/>
		<g>
			<rect x="6.5" y="7.5" fill="#D0394B" stroke="#D0394B" stroke-miterlimit="10" width="6" height="6"/>
			<rect x="6.5" y="17.5" fill="#333333" stroke="#333333" stroke-miterlimit="10" width="23" height="1"/>
			<rect x="6.5" y="22.5" fill="#333333" stroke="#333333" stroke-miterlimit="10" width="23" height="1"/>
			<rect x="15.5" y="7.5" fill="#333333" stroke="#333333" stroke-miterlimit="10" width="14" height="1"/>
			<rect x="15.5" y="12.5" fill="#333333" stroke="#333333" stroke-miterlimit="10" width="14" height="1"/>
			<rect x="6.5" y="27.5" fill="#333333" stroke="#333333" stroke-miterlimit="10" width="23" height="1"/>
		</g>
	</g>
	<g>
		<path fill="#333333" d="M63.707,19.553c0,5.432-3.299,9.063-8.33,9.063c-2.5,0-4.465-1-5.764-2.798v2.6h-5.131V3.694h5.131v9.429
			c1.266-1.799,3.229-2.799,5.664-2.799C60.309,10.324,63.707,14.023,63.707,19.553z M58.51,19.387c0-2.865-1.801-4.931-4.432-4.931
			c-2.633,0-4.465,2.033-4.465,4.931c0,2.967,1.832,4.965,4.465,4.965C56.709,24.352,58.51,22.318,58.51,19.387z"/>
		<path fill="#333333" d="M83.568,21.02H70.707c0.601,2.267,2.332,3.6,4.631,3.6c1.699,0,3.3-0.667,4.531-1.899l2.699,2.732
			c-1.799,1.999-4.433,3.164-7.664,3.164c-5.73,0-9.361-3.664-9.361-9.097c0-5.529,3.767-9.194,9.229-9.194
			C81.07,10.324,84.002,14.489,83.568,21.02z M78.77,17.987c-0.066-2.365-1.599-3.898-3.965-3.898c-2.267,0-3.798,1.533-4.197,3.898
			H78.77z"/>
		<path fill="#333333" d="M92.102,13.722c1.231-2.199,3.264-3.398,5.93-3.431v4.831c-3.666-0.333-5.93,1.632-5.93,4.664v8.631
			h-5.131V10.49h5.131V13.722z"/>
		<path fill="#333333" d="M106.164,5.393c0,1.666-1.133,2.865-2.766,2.865s-2.767-1.199-2.767-2.865s1.134-2.865,2.767-2.865
			S106.164,3.727,106.164,5.393z M100.832,28.417V10.49h5.131v17.927H100.832z"/>
		<path fill="#333333" d="M121.99,27.417c-1.332,0.767-2.998,1.231-4.664,1.231c-3.197,0-5.631-1.832-5.631-5.53v-8.296h-2.498
			v-3.531h2.498V6.359h5.098v4.932h4.865v3.565h-4.865v7.396c0,1.5,0.633,2.1,1.732,2.066c0.666,0,1.467-0.232,2.399-0.668
			L121.99,27.417z"/>
		<path fill="#333333" d="M135.488,26.318c-1.201,1.498-3.133,2.33-5.631,2.33c-3.832,0-6.164-2.33-6.164-5.598
			c0-3.365,2.432-5.364,6.83-5.396h4.932v-0.334c0-1.899-1.266-2.999-3.731-2.999c-1.601,0-3.466,0.534-5.332,1.565l-1.599-3.532
			c2.664-1.332,4.963-2.065,8.097-2.065c4.799,0,7.563,2.399,7.598,6.43l0.033,11.696h-5.031L135.488,26.318L135.488,26.318z
			 M135.455,22.285v-1.6h-4.033c-1.965,0-2.932,0.601-2.932,2.032c0,1.367,1.066,2.267,2.799,2.267
			C133.455,24.984,135.154,23.818,135.455,22.285z"/>
		<path fill="#333333" stroke="#333333" stroke-miterlimit="10" d="M161.08,28.417h-0.666v-5.065
			c-1.268,3.101-4.133,5.133-7.764,5.133c-4.865,0-8.43-3.666-8.43-8.664c0-5.03,3.563-8.695,8.43-8.695
			c3.631,0,6.496,2.032,7.764,5.131V3.694h0.666V28.417z M160.414,19.82c0-4.631-3.266-8.03-7.764-8.03s-7.765,3.399-7.765,8.03
			c0,4.631,3.267,7.996,7.765,7.996S160.414,24.451,160.414,19.82z"/>
		<path fill="#333333" stroke="#333333" stroke-miterlimit="10" d="M169.779,6.226c0,0.467-0.4,0.867-0.865,0.867
			c-0.467,0-0.867-0.4-0.867-0.867c0-0.466,0.4-0.866,0.867-0.866C169.379,5.36,169.779,5.76,169.779,6.226z M168.58,28.417V11.189
			h0.666v17.228H168.58z"/>
		<path fill="#333333" stroke="#333333" stroke-miterlimit="10" d="M190.771,26.451c0,5.13-3.232,8.428-8.197,8.396
			c-2.766-0.103-4.93-1.033-6.93-3l0.467-0.468c1.832,1.833,3.865,2.699,6.463,2.8c4.566,0.033,7.531-3,7.531-7.729v-3.565
			c-1.199,2.966-3.965,4.897-7.431,4.897c-4.633,0-8.03-3.498-8.03-8.264c0-4.831,3.397-8.331,8.03-8.331
			c3.466,0,6.23,1.934,7.431,4.932v-4.932h0.666V26.451z M190.105,19.52c0-4.431-3.133-7.695-7.431-7.695
			c-4.299,0-7.396,3.266-7.396,7.695c0,4.398,3.098,7.631,7.396,7.631C186.973,27.15,190.105,23.918,190.105,19.52z"/>
		<path fill="#333333" stroke="#333333" stroke-miterlimit="10" d="M198.771,6.226c0,0.467-0.4,0.867-0.867,0.867
			c-0.465,0-0.865-0.4-0.865-0.867c0-0.466,0.4-0.866,0.865-0.866C198.371,5.36,198.771,5.76,198.771,6.226z M197.572,28.417V11.189
			h0.666v17.228H197.572z"/>
		<path fill="#333333" stroke="#333333" stroke-miterlimit="10" d="M213.166,27.184c-1,0.767-2.166,1.199-3.397,1.233
			c-2.398,0.032-3.666-1.601-3.666-4.731V12.19h-2.531v-0.667h2.531V7.425h0.668v4.098h6.063v0.667h-6.063v11.494
			c0,2.666,1.03,4.1,2.998,4.064c1.065-0.032,2.133-0.398,2.998-1.1L213.166,27.184z"/>
		<path fill="#333333" stroke="#333333" stroke-miterlimit="10" d="M228.895,24.518c-1.533,2.699-4.131,3.899-7.23,3.899
			c-3.332,0-5.598-2.099-5.598-4.965c0-2.798,2.465-4.433,6.396-4.433h6.398v-2.1c-0.033-3.166-1.832-5.064-5.465-5.064
			c-2.299,0-4.164,0.932-6.031,2.399l-0.398-0.534c1.933-1.532,3.998-2.533,6.431-2.533c3.965,0,6.098,2.233,6.131,5.731
			l0.065,11.496h-0.666L228.895,24.518z M228.895,23.02l-0.033-3.332h-6.398c-3.664,0-5.729,1.365-5.729,3.766
			c0,2.531,1.934,4.297,4.965,4.297C225.029,27.749,227.529,26.417,228.895,23.02z"/>
		<path fill="#333333" stroke="#333333" stroke-miterlimit="10" d="M236.527,28.417V3.694h0.668v24.723H236.527z"/>
	</g>
</g>
</svg>
